<svg width="24" height="24" viewBox="0 0 24 24" fill="none" xmlns="http://www.w3.org/2000/svg">
<g clip-path="url(#clip0_6_23)">
<path fill-rule="evenodd" clip-rule="evenodd" d="M0 0H24V24H0V0Z" fill="#2E303B"/>
<path d="M13.9152 4.8H10.0853C9.69867 4.8 9.4624 4.94747 9.3152 5.34L9.29734 5.39013L3.55387 18.1667C3.34854 18.6461 3.50747 18.9165 4.01627 18.9325L4.06507 18.9333H7.43947C7.82507 18.9333 8.06134 18.7859 8.20054 18.4133L8.21814 18.3635L8.22667 18.3411L12.0008 9.95173L15.7731 18.3411L15.7816 18.3632C15.9128 18.7563 16.1376 18.9195 16.5104 18.9325L16.56 18.9333H19.9347C20.4648 18.9333 20.6459 18.6776 20.4656 18.2144L20.4477 18.1704L14.7016 5.39013L14.6931 5.368C14.5627 4.97733 14.3365 4.81387 13.9645 4.8008L13.9152 4.8Z" fill="#00BAFC"/>
</g>
<defs>
<clipPath id="clip0_6_23">
<rect width="24" height="24" fill="white"/>
</clipPath>
</defs>
</svg>
